999
"DXF R12 Output" (www.mydxf.blogspot.com)
 0 
SECTION
 2 
HEADER
 9 
$ACADVER
 1 
AC1009
 9 
$EXTMIN
 10 
 0 
 20 
 0 
 9 
$EXTMAX
 10 
 8.5 
 20 
 11 
 0 
ENDSEC
 0 
SECTION
 2 
ENTITIES
0
LINE
8
Layer 1
10
0.846666
20
214.180000
11
-0.846666
21
212.486000
0
LINE
8
Layer 1
10
0.000000
20
214.744000
11
0.000000
21
211.922000
0
LINE
8
Layer 1
10
2.257780
20
212.204000
11
1.128890
21
211.075110
0
LINE
8
Layer 1
10
1.693330
20
212.769000
11
0.564440
21
211.640110
0
LINE
8
Layer 1
10
1.128890
20
213.333000
11
0.000000
21
212.204110
0
LINE
8
Layer 1
10
150.675000
20
94.770300
11
150.426357
21
95.705460
0
LINE
8
Layer 1
10
150.426357
20
95.705460
11
149.742917
21
96.390484
0
LINE
8
Layer 1
10
149.742917
20
96.390484
11
148.808335
21
96.641290
0
LINE
8
Layer 1
10
148.808335
20
96.641290
11
147.873753
21
96.390484
0
LINE
8
Layer 1
10
147.873753
20
96.390484
11
147.190313
21
95.705460
0
LINE
8
Layer 1
10
147.190313
20
95.705460
11
146.941670
21
94.770300
0
LINE
8
Layer 1
10
146.941670
20
94.770300
11
147.190313
21
93.835140
0
LINE
8
Layer 1
10
147.190313
20
93.835140
11
147.873753
21
93.150116
0
LINE
8
Layer 1
10
147.873753
20
93.150116
11
148.808335
21
92.899310
0
LINE
8
Layer 1
10
148.808335
20
92.899310
11
149.742917
21
93.150116
0
LINE
8
Layer 1
10
149.742917
20
93.150116
11
150.426357
21
93.835140
0
LINE
8
Layer 1
10
150.426357
20
93.835140
11
150.675000
21
94.770300
0
LINE
8
Layer 1
10
150.675000
20
94.770300
11
150.675000
21
94.770300
0
LINE
8
Layer 1
10
106.174000
20
76.337600
11
105.925357
21
77.272760
0
LINE
8
Layer 1
10
105.925357
20
77.272760
11
105.241917
21
77.957784
0
LINE
8
Layer 1
10
105.241917
20
77.957784
11
104.307335
21
78.208590
0
LINE
8
Layer 1
10
104.307335
20
78.208590
11
103.372753
21
77.957784
0
LINE
8
Layer 1
10
103.372753
20
77.957784
11
102.689313
21
77.272760
0
LINE
8
Layer 1
10
102.689313
20
77.272760
11
102.440670
21
76.337600
0
LINE
8
Layer 1
10
102.440670
20
76.337600
11
102.689313
21
75.402440
0
LINE
8
Layer 1
10
102.689313
20
75.402440
11
103.372753
21
74.717416
0
LINE
8
Layer 1
10
103.372753
20
74.717416
11
104.307335
21
74.466610
0
LINE
8
Layer 1
10
104.307335
20
74.466610
11
105.241917
21
74.717416
0
LINE
8
Layer 1
10
105.241917
20
74.717416
11
105.925357
21
75.402440
0
LINE
8
Layer 1
10
105.925357
20
75.402440
11
106.174000
21
76.337600
0
LINE
8
Layer 1
10
106.174000
20
76.337600
11
106.174000
21
76.337600
0
LINE
8
Layer 1
10
61.673500
20
94.770300
11
61.424857
21
95.705460
0
LINE
8
Layer 1
10
61.424857
20
95.705460
11
60.741417
21
96.390484
0
LINE
8
Layer 1
10
60.741417
20
96.390484
11
59.806835
21
96.641290
0
LINE
8
Layer 1
10
59.806835
20
96.641290
11
58.872253
21
96.390484
0
LINE
8
Layer 1
10
58.872253
20
96.390484
11
58.188813
21
95.705460
0
LINE
8
Layer 1
10
58.188813
20
95.705460
11
57.940170
21
94.770300
0
LINE
8
Layer 1
10
57.940170
20
94.770300
11
58.188813
21
93.835140
0
LINE
8
Layer 1
10
58.188813
20
93.835140
11
58.872253
21
93.150116
0
LINE
8
Layer 1
10
58.872253
20
93.150116
11
59.806835
21
92.899310
0
LINE
8
Layer 1
10
59.806835
20
92.899310
11
60.741417
21
93.150116
0
LINE
8
Layer 1
10
60.741417
20
93.150116
11
61.424857
21
93.835140
0
LINE
8
Layer 1
10
61.424857
20
93.835140
11
61.673500
21
94.770300
0
LINE
8
Layer 1
10
61.673500
20
94.770300
11
61.673500
21
94.770300
0
LINE
8
Layer 1
10
225.627000
20
147.517000
11
225.901863
21
140.420498
0
LINE
8
Layer 1
10
225.901863
20
140.420498
11
225.764285
21
133.362959
0
LINE
8
Layer 1
10
225.764285
20
133.362959
11
225.220928
21
126.360463
0
LINE
8
Layer 1
10
225.220928
20
126.360463
11
224.278452
21
119.429092
0
LINE
8
Layer 1
10
224.278452
20
119.429092
11
222.943518
21
112.584926
0
LINE
8
Layer 1
10
222.943518
20
112.584926
11
221.222787
21
105.844044
0
LINE
8
Layer 1
10
221.222787
20
105.844044
11
219.122919
21
99.222528
0
LINE
8
Layer 1
10
219.122919
20
99.222528
11
216.650576
21
92.736458
0
LINE
8
Layer 1
10
216.650576
20
92.736458
11
213.812418
21
86.401914
0
LINE
8
Layer 1
10
213.812418
20
86.401914
11
210.615106
21
80.234977
0
LINE
8
Layer 1
10
210.615106
20
80.234977
11
207.065300
21
74.251727
0
LINE
8
Layer 1
10
207.065300
20
74.251727
11
203.169662
21
68.468245
0
LINE
8
Layer 1
10
203.169662
20
68.468245
11
198.934853
21
62.900611
0
LINE
8
Layer 1
10
198.934853
20
62.900611
11
194.367532
21
57.564905
0
LINE
8
Layer 1
10
194.367532
20
57.564905
11
189.474361
21
52.477208
0
LINE
8
Layer 1
10
189.474361
20
52.477208
11
184.262000
21
47.653600
0
LINE
8
Layer 1
10
184.262000
20
47.653600
11
182.238455
21
46.090812
0
LINE
8
Layer 1
10
182.238455
20
46.090812
11
180.066547
21
44.793963
0
LINE
8
Layer 1
10
180.066547
20
44.793963
11
177.772102
21
43.769472
0
LINE
8
Layer 1
10
177.772102
20
43.769472
11
175.380947
21
43.023759
0
LINE
8
Layer 1
10
175.380947
20
43.023759
11
172.918909
21
42.563242
0
LINE
8
Layer 1
10
172.918909
20
42.563242
11
170.411813
21
42.394340
0
LINE
8
Layer 1
10
170.411813
20
42.394340
11
167.885486
21
42.523472
0
LINE
8
Layer 1
10
167.885486
20
42.523472
11
165.365755
21
42.957058
0
LINE
8
Layer 1
10
165.365755
20
42.957058
11
162.915874
21
43.688582
0
LINE
8
Layer 1
10
162.915874
20
43.688582
11
160.595404
21
44.695766
0
LINE
8
Layer 1
10
160.595404
20
44.695766
11
158.424626
21
45.961381
0
LINE
8
Layer 1
10
158.424626
20
45.961381
11
156.423823
21
47.468198
0
LINE
8
Layer 1
10
156.423823
20
47.468198
11
154.613277
21
49.198987
0
LINE
8
Layer 1
10
154.613277
20
49.198987
11
153.013269
21
51.136519
0
LINE
8
Layer 1
10
153.013269
20
51.136519
11
151.644083
21
53.263567
0
LINE
8
Layer 1
10
151.644083
20
53.263567
11
150.526000
21
55.562900
0
LINE
8
Layer 1
10
150.526000
20
55.562900
11
150.009000
21
56.811700
0
LINE
8
Layer 1
10
150.009000
20
56.811700
11
148.966785
21
60.023425
0
LINE
8
Layer 1
10
148.966785
20
60.023425
11
148.449854
21
63.297540
0
LINE
8
Layer 1
10
148.449854
20
63.297540
11
148.444671
21
66.575741
0
LINE
8
Layer 1
10
148.444671
20
66.575741
11
148.937704
21
69.799728
0
LINE
8
Layer 1
10
148.937704
20
69.799728
11
149.915416
21
72.911200
0
LINE
8
Layer 1
10
149.915416
20
72.911200
11
151.364274
21
75.851853
0
LINE
8
Layer 1
10
151.364274
20
75.851853
11
153.270744
21
78.563387
0
LINE
8
Layer 1
10
153.270744
20
78.563387
11
155.621290
21
80.987500
0
LINE
8
Layer 1
10
155.621290
20
80.987500
11
158.905039
21
84.051285
0
LINE
8
Layer 1
10
158.905039
20
84.051285
11
161.988440
21
87.279905
0
LINE
8
Layer 1
10
161.988440
20
87.279905
11
164.867358
21
90.663379
0
LINE
8
Layer 1
10
164.867358
20
90.663379
11
167.537660
21
94.191727
0
LINE
8
Layer 1
10
167.537660
20
94.191727
11
169.995213
21
97.854968
0
LINE
8
Layer 1
10
169.995213
20
97.854968
11
172.235881
21
101.643124
0
LINE
8
Layer 1
10
172.235881
20
101.643124
11
174.255532
21
105.546213
0
LINE
8
Layer 1
10
174.255532
20
105.546213
11
176.050031
21
109.554255
0
LINE
8
Layer 1
10
176.050031
20
109.554255
11
177.615244
21
113.657271
0
LINE
8
Layer 1
10
177.615244
20
113.657271
11
178.947038
21
117.845279
0
LINE
8
Layer 1
10
178.947038
20
117.845279
11
180.041278
21
122.108301
0
LINE
8
Layer 1
10
180.041278
20
122.108301
11
180.893831
21
126.436356
0
LINE
8
Layer 1
10
180.893831
20
126.436356
11
181.500562
21
130.819463
0
LINE
8
Layer 1
10
181.500562
20
130.819463
11
181.857339
21
135.247643
0
LINE
8
Layer 1
10
181.857339
20
135.247643
11
181.960026
21
139.710915
0
LINE
8
Layer 1
10
181.960026
20
139.710915
11
181.804490
21
144.199300
0
LINE
8
Layer 1
10
181.804490
20
144.199300
11
181.856505
21
147.575501
0
LINE
8
Layer 1
10
181.856505
20
147.575501
11
182.425769
21
150.840929
0
LINE
8
Layer 1
10
182.425769
20
150.840929
11
183.480628
21
153.944790
0
LINE
8
Layer 1
10
183.480628
20
153.944790
11
184.989425
21
156.836285
0
LINE
8
Layer 1
10
184.989425
20
156.836285
11
186.920505
21
159.464620
0
LINE
8
Layer 1
10
186.920505
20
159.464620
11
189.242212
21
161.778998
0
LINE
8
Layer 1
10
189.242212
20
161.778998
11
191.922893
21
163.728624
0
LINE
8
Layer 1
10
191.922893
20
163.728624
11
194.930890
21
165.262700
0
LINE
8
Layer 1
10
194.930890
20
165.262700
11
196.179630
21
165.779945
0
LINE
8
Layer 1
10
196.179630
20
165.779945
11
198.596157
21
166.615280
0
LINE
8
Layer 1
10
198.596157
20
166.615280
11
201.068423
21
167.151219
0
LINE
8
Layer 1
10
201.068423
20
167.151219
11
203.569903
21
167.389921
0
LINE
8
Layer 1
10
203.569903
20
167.389921
11
206.074069
21
167.333545
0
LINE
8
Layer 1
10
206.074069
20
167.333545
11
208.554395
21
166.984249
0
LINE
8
Layer 1
10
208.554395
20
166.984249
11
210.984355
21
166.344192
0
LINE
8
Layer 1
10
210.984355
20
166.344192
11
213.337423
21
165.415534
0
LINE
8
Layer 1
10
213.337423
20
165.415534
11
215.587071
21
164.200434
0
LINE
8
Layer 1
10
215.587071
20
164.200434
11
217.675427
21
162.725253
0
LINE
8
Layer 1
10
217.675427
20
162.725253
11
219.553152
21
161.030119
0
LINE
8
Layer 1
10
219.553152
20
161.030119
11
221.206523
21
159.137834
0
LINE
8
Layer 1
10
221.206523
20
159.137834
11
222.621815
21
157.071201
0
LINE
8
Layer 1
10
222.621815
20
157.071201
11
223.785306
21
154.853022
0
LINE
8
Layer 1
10
223.785306
20
154.853022
11
224.683271
21
152.506102
0
LINE
8
Layer 1
10
224.683271
20
152.506102
11
225.301987
21
150.053242
0
LINE
8
Layer 1
10
225.301987
20
150.053242
11
225.627730
21
147.517245
0
LINE
8
Layer 1
10
225.627730
20
147.517245
11
225.627000
21
147.517000
0
LINE
8
Layer 1
10
169.107000
20
139.271000
11
168.858357
21
140.206160
0
LINE
8
Layer 1
10
168.858357
20
140.206160
11
168.174917
21
140.891184
0
LINE
8
Layer 1
10
168.174917
20
140.891184
11
167.240335
21
141.141990
0
LINE
8
Layer 1
10
167.240335
20
141.141990
11
166.305753
21
140.891184
0
LINE
8
Layer 1
10
166.305753
20
140.891184
11
165.622313
21
140.206160
0
LINE
8
Layer 1
10
165.622313
20
140.206160
11
165.373670
21
139.271000
0
LINE
8
Layer 1
10
165.373670
20
139.271000
11
165.622313
21
138.335840
0
LINE
8
Layer 1
10
165.622313
20
138.335840
11
166.305753
21
137.650816
0
LINE
8
Layer 1
10
166.305753
20
137.650816
11
167.240335
21
137.400010
0
LINE
8
Layer 1
10
167.240335
20
137.400010
11
168.174917
21
137.650816
0
LINE
8
Layer 1
10
168.174917
20
137.650816
11
168.858357
21
138.335840
0
LINE
8
Layer 1
10
168.858357
20
138.335840
11
169.107000
21
139.271000
0
LINE
8
Layer 1
10
169.107000
20
139.271000
11
169.107000
21
139.271000
0
LINE
8
Layer 1
10
21.848200
20
93.569600
11
20.599460
21
93.052358
0
LINE
8
Layer 1
10
20.599460
20
93.052358
11
18.300050
21
91.934292
0
LINE
8
Layer 1
10
18.300050
20
91.934292
11
16.172930
21
90.565107
0
LINE
8
Layer 1
10
16.172930
20
90.565107
11
14.235331
21
88.965088
0
LINE
8
Layer 1
10
14.235331
20
88.965088
11
12.504483
21
87.154518
0
LINE
8
Layer 1
10
12.504483
20
87.154518
11
10.997616
21
85.153680
0
LINE
8
Layer 1
10
10.997616
20
85.153680
11
9.731960
21
82.982858
0
LINE
8
Layer 1
10
9.731960
20
82.982858
11
8.724747
21
80.662335
0
LINE
8
Layer 1
10
8.724747
20
80.662335
11
7.993206
21
78.212395
0
LINE
8
Layer 1
10
7.993206
20
78.212395
11
7.559619
21
75.692602
0
LINE
8
Layer 1
10
7.559619
20
75.692602
11
7.430500
21
73.166214
0
LINE
8
Layer 1
10
7.430500
20
73.166214
11
7.599428
21
70.659062
0
LINE
8
Layer 1
10
7.599428
20
70.659062
11
8.059985
21
68.196972
0
LINE
8
Layer 1
10
8.059985
20
68.196972
11
8.805750
21
65.805772
0
LINE
8
Layer 1
10
8.805750
20
65.805772
11
9.830305
21
63.511292
0
LINE
8
Layer 1
10
9.830305
20
63.511292
11
11.127228
21
61.339358
0
LINE
8
Layer 1
10
11.127228
20
61.339358
11
12.690100
21
59.315800
0
LINE
8
Layer 1
10
12.690100
20
59.315800
11
17.513733
21
54.103421
0
LINE
8
Layer 1
10
17.513733
20
54.103421
11
22.601457
21
49.210234
0
LINE
8
Layer 1
10
22.601457
20
49.210234
11
27.937191
21
44.642901
0
LINE
8
Layer 1
10
27.937191
20
44.642901
11
33.504856
21
40.408082
0
LINE
8
Layer 1
10
33.504856
20
40.408082
11
39.288369
21
36.512438
0
LINE
8
Layer 1
10
39.288369
20
36.512438
11
45.271651
21
32.962629
0
LINE
8
Layer 1
10
45.271651
20
32.962629
11
51.438621
21
29.765318
0
LINE
8
Layer 1
10
51.438621
20
29.765318
11
57.773199
21
26.927164
0
LINE
8
Layer 1
10
57.773199
20
26.927164
11
64.259303
21
24.454829
0
LINE
8
Layer 1
10
64.259303
20
24.454829
11
70.880852
21
22.354972
0
LINE
8
Layer 1
10
70.880852
20
22.354972
11
77.621767
21
20.634256
0
LINE
8
Layer 1
10
77.621767
20
20.634256
11
84.465967
21
19.299340
0
LINE
8
Layer 1
10
84.465967
20
19.299340
11
91.397371
21
18.356885
0
LINE
8
Layer 1
10
91.397371
20
18.356885
11
98.399898
21
17.813554
0
LINE
8
Layer 1
10
98.399898
20
17.813554
11
105.457468
21
17.676005
0
LINE
8
Layer 1
10
105.457468
20
17.676005
11
112.554000
21
17.950900
0
LINE
8
Layer 1
10
112.554000
20
17.950900
11
115.089946
21
18.276716
0
LINE
8
Layer 1
10
115.089946
20
18.276716
11
117.542749
21
18.895494
0
LINE
8
Layer 1
10
117.542749
20
18.895494
11
119.889609
21
19.793509
0
LINE
8
Layer 1
10
119.889609
20
19.793509
11
122.107724
21
20.957039
0
LINE
8
Layer 1
10
122.107724
20
20.957039
11
124.174292
21
22.372359
0
LINE
8
Layer 1
10
124.174292
20
22.372359
11
126.066512
21
24.025745
0
LINE
8
Layer 1
10
126.066512
20
24.025745
11
127.761582
21
25.903475
0
LINE
8
Layer 1
10
127.761582
20
25.903475
11
129.236701
21
27.991824
0
LINE
8
Layer 1
10
129.236701
20
27.991824
11
130.451746
21
30.241456
0
LINE
8
Layer 1
10
130.451746
20
30.241456
11
131.380355
21
32.594500
0
LINE
8
Layer 1
10
131.380355
20
32.594500
11
132.020372
21
35.024430
0
LINE
8
Layer 1
10
132.020372
20
35.024430
11
132.369636
21
37.504722
0
LINE
8
Layer 1
10
132.369636
20
37.504722
11
132.425989
21
40.008851
0
LINE
8
Layer 1
10
132.425989
20
40.008851
11
132.187273
21
42.510290
0
LINE
8
Layer 1
10
132.187273
20
42.510290
11
131.651330
21
44.982515
0
LINE
8
Layer 1
10
131.651330
20
44.982515
11
130.816000
21
47.399000
0
LINE
8
Layer 1
10
130.816000
20
47.399000
11
130.298758
21
48.647740
0
LINE
8
Layer 1
10
130.298758
20
48.647740
11
128.764728
21
51.655667
0
LINE
8
Layer 1
10
128.764728
20
51.655667
11
126.815167
21
54.336297
0
LINE
8
Layer 1
10
126.815167
20
54.336297
11
124.500867
21
56.657975
0
LINE
8
Layer 1
10
124.500867
20
56.657975
11
121.872620
21
58.589047
0
LINE
8
Layer 1
10
121.872620
20
58.589047
11
118.981218
21
60.097859
0
LINE
8
Layer 1
10
118.981218
20
60.097859
11
115.877453
21
61.152758
0
LINE
8
Layer 1
10
115.877453
20
61.152758
11
112.612116
21
61.722090
0
LINE
8
Layer 1
10
112.612116
20
61.722090
11
109.236000
21
61.774200
0
LINE
8
Layer 1
10
109.236000
20
61.774200
11
104.747605
21
61.618648
0
LINE
8
Layer 1
10
104.747605
20
61.618648
11
100.284322
21
61.721321
0
LINE
8
Layer 1
10
100.284322
20
61.721321
11
95.856131
21
62.078084
0
LINE
8
Layer 1
10
95.856131
20
62.078084
11
91.473012
21
62.684803
0
LINE
8
Layer 1
10
91.473012
20
62.684803
11
87.144945
21
63.537346
0
LINE
8
Layer 1
10
87.144945
20
63.537346
11
82.881910
21
64.631576
0
LINE
8
Layer 1
10
82.881910
20
64.631576
11
78.693888
21
65.963362
0
LINE
8
Layer 1
10
78.693888
20
65.963362
11
74.590859
21
67.528568
0
LINE
8
Layer 1
10
74.590859
20
67.528568
11
70.582804
21
69.323062
0
LINE
8
Layer 1
10
70.582804
20
69.323062
11
66.679701
21
71.342708
0
LINE
8
Layer 1
10
66.679701
20
71.342708
11
62.891532
21
73.583374
0
LINE
8
Layer 1
10
62.891532
20
73.583374
11
59.228277
21
76.040924
0
LINE
8
Layer 1
10
59.228277
20
76.040924
11
55.699916
21
78.711226
0
LINE
8
Layer 1
10
55.699916
20
78.711226
11
52.316430
21
81.590145
0
LINE
8
Layer 1
10
52.316430
20
81.590145
11
49.087797
21
84.673548
0
LINE
8
Layer 1
10
49.087797
20
84.673548
11
46.024000
21
87.957300
0
LINE
8
Layer 1
10
46.024000
20
87.957300
11
43.599888
21
90.307848
0
LINE
8
Layer 1
10
43.599888
20
90.307848
11
40.888354
21
92.214319
0
LINE
8
Layer 1
10
40.888354
20
92.214319
11
37.947701
21
93.663178
0
LINE
8
Layer 1
10
37.947701
20
93.663178
11
34.836230
21
94.640892
0
LINE
8
Layer 1
10
34.836230
20
94.640892
11
31.612243
21
95.133925
0
LINE
8
Layer 1
10
31.612243
20
95.133925
11
28.334041
21
95.128744
0
LINE
8
Layer 1
10
28.334041
20
95.128744
11
25.059926
21
94.611814
0
LINE
8
Layer 1
10
25.059926
20
94.611814
11
21.848200
21
93.569600
0
LINE
8
Layer 1
10
21.848200
20
93.569600
11
21.848200
21
93.569600
0
LINE
8
Layer 1
10
-22.818300
20
86.613700
11
-19.935830
21
80.152715
0
LINE
8
Layer 1
10
-19.935830
20
80.152715
11
-16.764403
21
73.912316
0
LINE
8
Layer 1
10
-16.764403
20
73.912316
11
-13.315282
21
67.897157
0
LINE
8
Layer 1
10
-13.315282
20
67.897157
11
-9.599730
21
62.111894
0
LINE
8
Layer 1
10
-9.599730
20
62.111894
11
-5.629012
21
56.561180
0
LINE
8
Layer 1
10
-5.629012
20
56.561180
11
-1.414391
21
51.249670
0
LINE
8
Layer 1
10
-1.414391
20
51.249670
11
3.032869
21
46.182019
0
LINE
8
Layer 1
10
3.032869
20
46.182019
11
7.701505
21
41.362881
0
LINE
8
Layer 1
10
7.701505
20
41.362881
11
12.580252
21
36.796910
0
LINE
8
Layer 1
10
12.580252
20
36.796910
11
17.657848
21
32.488761
0
LINE
8
Layer 1
10
17.657848
20
32.488761
11
22.923029
21
28.443089
0
LINE
8
Layer 1
10
22.923029
20
28.443089
11
28.364531
21
24.664547
0
LINE
8
Layer 1
10
28.364531
20
24.664547
11
33.971090
21
21.157790
0
LINE
8
Layer 1
10
33.971090
20
21.157790
11
39.731442
21
17.927474
0
LINE
8
Layer 1
10
39.731442
20
17.927474
11
45.634324
21
14.978251
0
LINE
8
Layer 1
10
45.634324
20
14.978251
11
51.668473
21
12.314777
0
LINE
8
Layer 1
10
51.668473
20
12.314777
11
57.822625
21
9.941706
0
LINE
8
Layer 1
10
57.822625
20
9.941706
11
64.085515
21
7.863693
0
LINE
8
Layer 1
10
64.085515
20
7.863693
11
70.445881
21
6.085391
0
LINE
8
Layer 1
10
70.445881
20
6.085391
11
76.892458
21
4.611456
0
LINE
8
Layer 1
10
76.892458
20
4.611456
11
83.413983
21
3.446542
0
LINE
8
Layer 1
10
83.413983
20
3.446542
11
89.999193
21
2.595304
0
LINE
8
Layer 1
10
89.999193
20
2.595304
11
96.636823
21
2.062395
0
LINE
8
Layer 1
10
96.636823
20
2.062395
11
103.315611
21
1.852471
0
LINE
8
Layer 1
10
103.315611
20
1.852471
11
110.024291
21
1.970185
0
LINE
8
Layer 1
10
110.024291
20
1.970185
11
116.751602
21
2.420193
0
LINE
8
Layer 1
10
116.751602
20
2.420193
11
123.486278
21
3.207148
0
LINE
8
Layer 1
10
123.486278
20
3.207148
11
130.217057
21
4.335705
0
LINE
8
Layer 1
10
130.217057
20
4.335705
11
136.932675
21
5.810519
0
LINE
8
Layer 1
10
136.932675
20
5.810519
11
143.621867
21
7.636244
0
LINE
8
Layer 1
10
143.621867
20
7.636244
11
150.273371
21
9.817535
0
LINE
8
Layer 1
10
150.273371
20
9.817535
11
156.875923
21
12.359045
0
LINE
8
Layer 1
10
156.875923
20
12.359045
11
163.341752
21
15.230633
0
LINE
8
Layer 1
10
163.341752
20
15.230633
11
169.587481
21
18.391550
0
LINE
8
Layer 1
10
169.587481
20
18.391550
11
175.608438
21
21.830539
0
LINE
8
Layer 1
10
175.608438
20
21.830539
11
181.399948
21
25.536345
0
LINE
8
Layer 1
10
181.399948
20
25.536345
11
186.957339
21
29.497713
0
LINE
8
Layer 1
10
186.957339
20
29.497713
11
192.275937
21
33.703386
0
LINE
8
Layer 1
10
192.275937
20
33.703386
11
197.351068
21
38.142108
0
LINE
8
Layer 1
10
197.351068
20
38.142108
11
202.178060
21
42.802624
0
LINE
8
Layer 1
10
202.178060
20
42.802624
11
206.752238
21
47.673677
0
LINE
8
Layer 1
10
206.752238
20
47.673677
11
211.068929
21
52.744013
0
LINE
8
Layer 1
10
211.068929
20
52.744013
11
215.123460
21
58.002375
0
LINE
8
Layer 1
10
215.123460
20
58.002375
11
218.911158
21
63.437507
0
LINE
8
Layer 1
10
218.911158
20
63.437507
11
222.427348
21
69.038154
0
LINE
8
Layer 1
10
222.427348
20
69.038154
11
225.667358
21
74.793060
0
LINE
8
Layer 1
10
225.667358
20
74.793060
11
228.626515
21
80.690969
0
LINE
8
Layer 1
10
228.626515
20
80.690969
11
231.300144
21
86.720625
0
LINE
8
Layer 1
10
231.300144
20
86.720625
11
233.683572
21
92.870773
0
LINE
8
Layer 1
10
233.683572
20
92.870773
11
235.772127
21
99.130156
0
LINE
8
Layer 1
10
235.772127
20
99.130156
11
237.561134
21
105.487518
0
LINE
8
Layer 1
10
237.561134
20
105.487518
11
239.045920
21
111.931605
0
LINE
8
Layer 1
10
239.045920
20
111.931605
11
240.221812
21
118.451160
0
LINE
8
Layer 1
10
240.221812
20
118.451160
11
241.084136
21
125.034927
0
LINE
8
Layer 1
10
241.084136
20
125.034927
11
241.628219
21
131.671651
0
LINE
8
Layer 1
10
241.628219
20
131.671651
11
241.849387
21
138.350076
0
LINE
8
Layer 1
10
241.849387
20
138.350076
11
241.742967
21
145.058945
0
LINE
8
Layer 1
10
241.742967
20
145.058945
11
241.304286
21
151.787003
0
LINE
8
Layer 1
10
241.304286
20
151.787003
11
240.528670
21
158.522995
0
LINE
8
Layer 1
10
240.528670
20
158.522995
11
239.411446
21
165.255664
0
LINE
8
Layer 1
10
239.411446
20
165.255664
11
237.947941
21
171.973755
0
LINE
8
Layer 1
10
237.947941
20
171.973755
11
236.133480
21
178.666012
0
LINE
8
Layer 1
10
236.133480
20
178.666012
11
233.963391
21
185.321179
0
LINE
8
Layer 1
10
233.963391
20
185.321179
11
231.433000
21
191.928000
0
LINE
8
Layer 1
10
231.433000
20
191.928000
11
156.734000
21
160.987000
0
LINE
8
Layer 1
10
51.880300
20
117.555000
11
54.379080
21
112.320769
0
LINE
8
Layer 1
10
54.379080
20
112.320769
11
57.335357
21
107.458007
0
LINE
8
Layer 1
10
57.335357
20
107.458007
11
60.712010
21
102.982037
0
LINE
8
Layer 1
10
60.712010
20
102.982037
11
64.471920
21
98.908187
0
LINE
8
Layer 1
10
64.471920
20
98.908187
11
68.577964
21
95.251781
0
LINE
8
Layer 1
10
68.577964
20
95.251781
11
72.993022
21
92.028145
0
LINE
8
Layer 1
10
72.993022
20
92.028145
11
77.679973
21
89.252605
0
LINE
8
Layer 1
10
77.679973
20
89.252605
11
82.601697
21
86.940484
0
LINE
8
Layer 1
10
82.601697
20
86.940484
11
87.721072
21
85.107110
0
LINE
8
Layer 1
10
87.721072
20
85.107110
11
93.000978
21
83.767808
0
LINE
8
Layer 1
10
93.000978
20
83.767808
11
98.404294
21
82.937902
0
LINE
8
Layer 1
10
98.404294
20
82.937902
11
103.893899
21
82.632719
0
LINE
8
Layer 1
10
103.893899
20
82.632719
11
109.432673
21
82.867583
0
LINE
8
Layer 1
10
109.432673
20
82.867583
11
114.983494
21
83.657821
0
LINE
8
Layer 1
10
114.983494
20
83.657821
11
120.509241
21
85.018757
0
LINE
8
Layer 1
10
120.509241
20
85.018757
11
125.972795
21
86.965718
0
LINE
8
Layer 1
10
125.972795
20
86.965718
11
131.212812
21
89.452340
0
LINE
8
Layer 1
10
131.212812
20
89.452340
11
136.082425
21
92.397320
0
LINE
8
Layer 1
10
136.082425
20
92.397320
11
140.566221
21
95.763573
0
LINE
8
Layer 1
10
140.566221
20
95.763573
11
144.648789
21
99.514015
0
LINE
8
Layer 1
10
144.648789
20
99.514015
11
148.314717
21
103.611560
0
LINE
8
Layer 1
10
148.314717
20
103.611560
11
151.548594
21
108.019122
0
LINE
8
Layer 1
10
151.548594
20
108.019122
11
154.335008
21
112.699617
0
LINE
8
Layer 1
10
154.335008
20
112.699617
11
156.658548
21
117.615960
0
LINE
8
Layer 1
10
156.658548
20
117.615960
11
158.503801
21
122.731066
0
LINE
8
Layer 1
10
158.503801
20
122.731066
11
159.855357
21
128.007848
0
LINE
8
Layer 1
10
159.855357
20
128.007848
11
160.697805
21
133.409223
0
LINE
8
Layer 1
10
160.697805
20
133.409223
11
161.015731
21
138.898105
0
LINE
8
Layer 1
10
161.015731
20
138.898105
11
160.793726
21
144.437409
0
LINE
8
Layer 1
10
160.793726
20
144.437409
11
160.016376
21
149.990049
0
LINE
8
Layer 1
10
160.016376
20
149.990049
11
158.668272
21
155.518941
0
LINE
8
Layer 1
10
158.668272
20
155.518941
11
156.734000
21
160.987000
0
LINE
8
Layer 1
10
51.880300
20
117.555000
11
-22.818300
21
86.613700
 0 
ENDSEC
 0 
EOF